<?xml version="1.0" encoding="UTF-8" standalone="no"?>
<svg
   xmlns:dc="http://purl.org/dc/elements/1.1/"
   xmlns:cc="http://creativecommons.org/ns#"
   xmlns:rdf="http://www.w3.org/1999/02/22-rdf-syntax-ns#"
   xmlns:svg="http://www.w3.org/2000/svg"
   xmlns="http://www.w3.org/2000/svg"
   xmlns:sodipodi="http://sodipodi.sourceforge.net/DTD/sodipodi-0.dtd"
   xmlns:inkscape="http://www.inkscape.org/namespaces/inkscape"
   version="1.0"
   width="500.000000pt"
   height="452.000000pt"
   viewBox="0 0 500.000000 452.000000"
   preserveAspectRatio="xMidYMid meet"
   id="svg30"
   sodipodi:docname="logo.svg"
   inkscape:version="0.92.5 (2060ec1f9f, 2020-04-08)">
  <metadata
     id="metadata36">
    <rdf:RDF>
      <cc:Work
         rdf:about="">
        <dc:format>image/svg+xml</dc:format>
        <dc:type
           rdf:resource="http://purl.org/dc/dcmitype/StillImage" />
      </cc:Work>
    </rdf:RDF>
  </metadata>
  <defs
     id="defs34" />
  <sodipodi:namedview
     pagecolor="#ffffff"
     bordercolor="#666666"
     borderopacity="1"
     objecttolerance="10"
     gridtolerance="10"
     guidetolerance="10"
     inkscape:pageopacity="0"
     inkscape:pageshadow="2"
     inkscape:window-width="1920"
     inkscape:window-height="1017"
     id="namedview32"
     showgrid="false"
     inkscape:zoom="1.4070796"
     inkscape:cx="333.33333"
     inkscape:cy="301.33333"
     inkscape:window-x="-8"
     inkscape:window-y="-8"
     inkscape:window-maximized="1"
     inkscape:current-layer="svg30" />
  <g
     transform="translate(0.000000,452.000000) scale(0.100000,-0.100000)"
     fill="#000000"
     stroke="none"
     id="g28"
     style="fill:#f2f2f2">
    <path
       d="M780 3905 c-61 -19 -123 -74 -154 -137 l-26 -52 0 -1466 0 -1466 26     -52 c32 -65 90 -115 157 -136 47 -15 114 -16 606 -14 l553 3 29 33 c32 36 36     66 16 115 -8 18 -225 327 -483 687 -258 360 -481 679 -496 709 -34 65 -38 156     -11 223 9 23 233 344 496 712 264 369 486 685 493 703 21 49 17 79 -15 115     l-29 33 -559 2 c-457 2 -566 -1 -603 -12z"
       id="path24"
       style="fill:#f2f2f2" />
    <path
       d="M2975 3911 c-16 -4 -47 -16 -67 -25 -63 -30 -1862 -1583 -1873 -1616     -4 -11 -4 -29 0 -40 11 -36 1791 -1568 1875 -1615 l55 -30 595 0 595 0 63 29     c77 36 139 101 167 177 20 53 20 79 20 1459 0 1613 9 1468 -94 1571 -98 97     -67 93 -731 95 -316 2 -588 -1 -605 -5z"
       id="path26"
       style="fill:#f2f2f2" />
  </g>
</svg>
